<mxfile host="app.diagrams.net" modified="2020-12-17T08:17:48.859Z" agent="5.0 (Windows NT 10.0; Win64; x64) AppleWebKit/537.36 (KHTML, like Gecko) Chrome/87.0.4280.88 Safari/537.36" etag="k0K0BC9-k3JIYCmox8rZ" version="14.0.4" type="github">
  <diagram id="0flYZ2KvlKBnyS_5kjW9" name="Page-1">
    <mxGraphModel dx="1790" dy="844" grid="1" gridSize="10" guides="1" tooltips="1" connect="1" arrows="1" fold="1" page="1" pageScale="1" pageWidth="827" pageHeight="1169" background="none" math="0" shadow="0">
      <root>
        <mxCell id="0" />
        <mxCell id="1" parent="0" />
        <mxCell id="VYMJ0pMXX_mTRCSWa4aX-2" value="话务员" style="rounded=1;whiteSpace=wrap;html=1;" vertex="1" parent="1">
          <mxGeometry x="60" y="90" width="120" height="60" as="geometry" />
        </mxCell>
        <mxCell id="VYMJ0pMXX_mTRCSWa4aX-3" value="派件员" style="rounded=1;whiteSpace=wrap;html=1;" vertex="1" parent="1">
          <mxGeometry x="60" y="220" width="120" height="60" as="geometry" />
        </mxCell>
        <mxCell id="VYMJ0pMXX_mTRCSWa4aX-4" value="办件员" style="rounded=1;whiteSpace=wrap;html=1;" vertex="1" parent="1">
          <mxGeometry x="60" y="360" width="120" height="60" as="geometry" />
        </mxCell>
        <mxCell id="VYMJ0pMXX_mTRCSWa4aX-5" value="审核" style="rounded=1;whiteSpace=wrap;html=1;" vertex="1" parent="1">
          <mxGeometry x="60" y="490" width="120" height="60" as="geometry" />
        </mxCell>
        <mxCell id="VYMJ0pMXX_mTRCSWa4aX-16" style="edgeStyle=orthogonalEdgeStyle;rounded=0;orthogonalLoop=1;jettySize=auto;html=1;exitX=0.5;exitY=1;exitDx=0;exitDy=0;" edge="1" parent="1" source="VYMJ0pMXX_mTRCSWa4aX-6" target="VYMJ0pMXX_mTRCSWa4aX-13">
          <mxGeometry relative="1" as="geometry">
            <Array as="points">
              <mxPoint x="495" y="60" />
              <mxPoint x="355" y="60" />
            </Array>
          </mxGeometry>
        </mxCell>
        <mxCell id="VYMJ0pMXX_mTRCSWa4aX-18" style="edgeStyle=orthogonalEdgeStyle;rounded=0;orthogonalLoop=1;jettySize=auto;html=1;exitX=0.5;exitY=1;exitDx=0;exitDy=0;entryX=0.5;entryY=0;entryDx=0;entryDy=0;" edge="1" parent="1" source="VYMJ0pMXX_mTRCSWa4aX-6" target="VYMJ0pMXX_mTRCSWa4aX-12">
          <mxGeometry relative="1" as="geometry" />
        </mxCell>
        <mxCell id="VYMJ0pMXX_mTRCSWa4aX-19" style="edgeStyle=orthogonalEdgeStyle;rounded=0;orthogonalLoop=1;jettySize=auto;html=1;exitX=0.5;exitY=1;exitDx=0;exitDy=0;entryX=0.5;entryY=0;entryDx=0;entryDy=0;" edge="1" parent="1" source="VYMJ0pMXX_mTRCSWa4aX-6" target="VYMJ0pMXX_mTRCSWa4aX-11">
          <mxGeometry relative="1" as="geometry">
            <Array as="points">
              <mxPoint x="495" y="60" />
              <mxPoint x="655" y="60" />
            </Array>
          </mxGeometry>
        </mxCell>
        <mxCell id="VYMJ0pMXX_mTRCSWa4aX-6" value="电话接听" style="rounded=0;whiteSpace=wrap;html=1;" vertex="1" parent="1">
          <mxGeometry x="450" y="10" width="90" height="40" as="geometry" />
        </mxCell>
        <mxCell id="VYMJ0pMXX_mTRCSWa4aX-9" value="&lt;h1&gt;工单操作&lt;/h1&gt;" style="text;html=1;strokeColor=none;fillColor=none;spacing=5;spacingTop=-20;whiteSpace=wrap;overflow=hidden;rounded=0;" vertex="1" parent="1">
          <mxGeometry x="50" y="20" width="190" height="120" as="geometry" />
        </mxCell>
        <mxCell id="VYMJ0pMXX_mTRCSWa4aX-49" style="edgeStyle=orthogonalEdgeStyle;rounded=0;orthogonalLoop=1;jettySize=auto;html=1;exitX=1;exitY=0.5;exitDx=0;exitDy=0;entryX=1;entryY=0.75;entryDx=0;entryDy=0;" edge="1" parent="1" source="VYMJ0pMXX_mTRCSWa4aX-11" target="VYMJ0pMXX_mTRCSWa4aX-30">
          <mxGeometry relative="1" as="geometry">
            <Array as="points">
              <mxPoint x="740" y="95" />
              <mxPoint x="740" y="50" />
              <mxPoint x="1090" y="50" />
              <mxPoint x="1090" y="190" />
            </Array>
          </mxGeometry>
        </mxCell>
        <mxCell id="VYMJ0pMXX_mTRCSWa4aX-11" value="提交" style="rounded=0;whiteSpace=wrap;html=1;" vertex="1" parent="1">
          <mxGeometry x="610" y="80" width="90" height="30" as="geometry" />
        </mxCell>
        <mxCell id="VYMJ0pMXX_mTRCSWa4aX-48" style="edgeStyle=orthogonalEdgeStyle;rounded=0;orthogonalLoop=1;jettySize=auto;html=1;exitX=0.5;exitY=1;exitDx=0;exitDy=0;" edge="1" parent="1" source="VYMJ0pMXX_mTRCSWa4aX-12" target="VYMJ0pMXX_mTRCSWa4aX-39">
          <mxGeometry relative="1" as="geometry">
            <Array as="points">
              <mxPoint x="495" y="460" />
            </Array>
          </mxGeometry>
        </mxCell>
        <mxCell id="VYMJ0pMXX_mTRCSWa4aX-12" value="归档" style="rounded=0;whiteSpace=wrap;html=1;" vertex="1" parent="1">
          <mxGeometry x="450" y="80" width="90" height="30" as="geometry" />
        </mxCell>
        <mxCell id="VYMJ0pMXX_mTRCSWa4aX-13" value="暂存" style="rounded=0;whiteSpace=wrap;html=1;" vertex="1" parent="1">
          <mxGeometry x="310" y="80" width="90" height="30" as="geometry" />
        </mxCell>
        <mxCell id="VYMJ0pMXX_mTRCSWa4aX-29" value="0-暂存" style="shape=parallelogram;perimeter=parallelogramPerimeter;whiteSpace=wrap;html=1;fixedSize=1;" vertex="1" parent="1">
          <mxGeometry x="310" y="150" width="80" height="30" as="geometry" />
        </mxCell>
        <mxCell id="VYMJ0pMXX_mTRCSWa4aX-30" value="1-新建" style="shape=parallelogram;perimeter=parallelogramPerimeter;whiteSpace=wrap;html=1;fixedSize=1;" vertex="1" parent="1">
          <mxGeometry x="900" y="170" width="80" height="30" as="geometry" />
        </mxCell>
        <mxCell id="VYMJ0pMXX_mTRCSWa4aX-31" value="2-处理中" style="shape=parallelogram;perimeter=parallelogramPerimeter;whiteSpace=wrap;html=1;fixedSize=1;" vertex="1" parent="1">
          <mxGeometry x="900" y="215" width="80" height="30" as="geometry" />
        </mxCell>
        <mxCell id="VYMJ0pMXX_mTRCSWa4aX-35" value="7-退回" style="shape=parallelogram;perimeter=parallelogramPerimeter;whiteSpace=wrap;html=1;fixedSize=1;" vertex="1" parent="1">
          <mxGeometry x="890" y="510" width="80" height="30" as="geometry" />
        </mxCell>
        <mxCell id="VYMJ0pMXX_mTRCSWa4aX-36" value="5-撤销" style="shape=parallelogram;perimeter=parallelogramPerimeter;whiteSpace=wrap;html=1;fixedSize=1;" vertex="1" parent="1">
          <mxGeometry x="890" y="390" width="80" height="30" as="geometry" />
        </mxCell>
        <mxCell id="VYMJ0pMXX_mTRCSWa4aX-37" value="3-审核拒绝" style="shape=parallelogram;perimeter=parallelogramPerimeter;whiteSpace=wrap;html=1;fixedSize=1;" vertex="1" parent="1">
          <mxGeometry x="900" y="270" width="80" height="30" as="geometry" />
        </mxCell>
        <mxCell id="VYMJ0pMXX_mTRCSWa4aX-38" value="4-审核通过" style="shape=parallelogram;perimeter=parallelogramPerimeter;whiteSpace=wrap;html=1;fixedSize=1;" vertex="1" parent="1">
          <mxGeometry x="900" y="330" width="80" height="30" as="geometry" />
        </mxCell>
        <mxCell id="VYMJ0pMXX_mTRCSWa4aX-39" value="6-办结" style="shape=parallelogram;perimeter=parallelogramPerimeter;whiteSpace=wrap;html=1;fixedSize=1;" vertex="1" parent="1">
          <mxGeometry x="890" y="445" width="80" height="30" as="geometry" />
        </mxCell>
      </root>
    </mxGraphModel>
  </diagram>
</mxfile>
